<?xml version="1.0" encoding="utf-8"?>
<!-- Generator: Adobe Illustrator 23.0.4, SVG Export Plug-In . SVG Version: 6.00 Build 0)  -->
<svg version="1.1" xmlns="http://www.w3.org/2000/svg" xmlns:xlink="http://www.w3.org/1999/xlink" x="0px" y="0px"
	 viewBox="0 0 1920 1080" style="enable-background:new 0 0 1920 1080;" xml:space="preserve">
<style type="text/css">
	.st0{fill:#483539;}
	.st1{fill:none;}
	.st2{opacity:0.5;fill:#F1579C;}
	.st3{font-family:'TitilliumWeb-Regular';}
	.st4{font-size:200px;}
	.st5{opacity:0.5;fill:#DCCF59;}
	.st6{opacity:0.5;}
	.st7{opacity:0.5;fill:#2FC5F4;}
	.st8{opacity:0.2;fill:#F1579C;}
	.st9{opacity:0.2;}
	.st10{fill:#E6E6E6;}
	.st11{font-size:72px;}
	.st12{font-size:24px;}
	.st13{font-size:106px;}
	.st14{opacity:0.14;fill:#2FC5F4;}
	.st15{opacity:0.14;fill:#F1579C;}
	.st16{opacity:0.14;fill:#DCCF59;}
	.st17{opacity:0.1;fill:#2FC5F4;}
	.st18{opacity:0.1;fill:#F1579C;}
	.st19{opacity:0.1;fill:#DCCF59;}
	.st20{opacity:0.26;fill:#2FC5F4;}
	.st21{opacity:0.26;fill:#F1579C;}
	.st22{opacity:0.26;fill:#DCCF59;}
	.st23{opacity:0.16;fill:#2FC5F4;}
	.st24{opacity:0.16;fill:#F1579C;}
	.st25{opacity:0.16;fill:#DCCF59;}
	.st26{opacity:0.11;fill:#2FC5F4;}
	.st27{opacity:0.11;fill:#F1579C;}
	.st28{opacity:0.11;fill:#DCCF59;}
	.st29{opacity:0.17;fill:#2FC5F4;}
	.st30{opacity:0.17;fill:#F1579C;}
	.st31{opacity:0.17;fill:#DCCF59;}
	.st32{opacity:0.09;fill:#2FC5F4;}
	.st33{opacity:0.09;fill:#F1579C;}
	.st34{opacity:0.09;fill:#DCCF59;}
	.st35{opacity:0.05;fill:#2FC5F4;}
	.st36{opacity:0.05;fill:#F1579C;}
	.st37{opacity:0.05;fill:#DCCF59;}
	.st38{opacity:0.08;fill:#2FC5F4;}
	.st39{opacity:0.08;fill:#F1579C;}
	.st40{opacity:0.08;fill:#DCCF59;}
	.st41{opacity:0.03;fill:#2FC5F4;}
	.st42{opacity:0.03;fill:#F1579C;}
	.st43{opacity:0.03;fill:#DCCF59;}
	.st44{opacity:0.06;fill:#2FC5F4;}
	.st45{opacity:0.06;fill:#F1579C;}
	.st46{opacity:0.06;fill:#DCCF59;}
	.st47{opacity:0.13;fill:#2FC5F4;}
	.st48{opacity:0.13;fill:#F1579C;}
	.st49{opacity:0.13;fill:#DCCF59;}
</style>
<g id="Layer_1">
	<g>
		<rect class="st0" width="1920" height="1080"/>
	</g>
</g>
<g id="Layer_2">
	<rect x="130.67" y="187.09" class="st1" width="1634.43" height="152.91"/>
	<text transform="matrix(1 0 0 1 404.0957 330.6924)" class="st2 st3 st4">CMYK to CSS</text>
	<rect x="118.67" y="187.09" class="st1" width="1634.43" height="152.91"/>
	<text transform="matrix(1 0 0 1 392.0957 330.6924)" class="st5 st3 st4">CMYK to CSS</text>
	<rect x="106.67" y="187.09" class="st1" width="1634.43" height="152.91"/>
	<text transform="matrix(1 0 0 1 380.0957 330.6924)" class="st6"><tspan x="0" y="0" class="st7 st3 st4">CMYK to CSS</tspan></text>
	<rect x="142.67" y="208.09" class="st1" width="1634.43" height="152.91"/>
	<text transform="matrix(1 0 0 1 416.0957 351.6924)" class="st8 st3 st4">CMYK to CSS</text>
	<rect x="130.67" y="208.09" class="st1" width="1634.43" height="152.91"/>
	<text transform="matrix(1 0 0 1 404.0957 351.6924)" class="st9"><tspan x="0" y="0" class="st5 st3 st4">CMYK to CSS</tspan></text>
	<rect x="118.67" y="208.09" class="st1" width="1634.43" height="152.91"/>
	<text transform="matrix(1 0 0 1 392.0957 351.6924)" class="st9"><tspan x="0" y="0" class="st7 st3 st4">CMYK to CSS</tspan></text>
	<rect x="154.67" y="161.09" class="st1" width="1634.43" height="152.91"/>
	<text transform="matrix(1 0 0 1 428.0957 304.6924)" class="st8 st3 st4">CMYK to CSS</text>
	<rect x="142.67" y="161.09" class="st1" width="1634.43" height="152.91"/>
	<text transform="matrix(1 0 0 1 416.0957 304.6924)" class="st9"><tspan x="0" y="0" class="st5 st3 st4">CMYK to CSS</tspan></text>
	<rect x="130.67" y="161.09" class="st1" width="1634.43" height="152.91"/>
	<text transform="matrix(1 0 0 1 404.0957 304.6924)" class="st9"><tspan x="0" y="0" class="st7 st3 st4">CMYK to CSS</tspan></text>
	<rect x="142.67" y="187.09" class="st1" width="1634.43" height="152.91"/>
	<text transform="matrix(1 0 0 1 416.0957 330.6924)" class="st10 st3 st4">CMYK to CSS</text>
	<rect x="421.56" y="655.69" class="st1" width="1092.44" height="246.86"/>
	<text transform="matrix(1 0 0 1 682.9521 707.3838)"><tspan x="0" y="0" class="st10 st3 st11">Capitol Plaza Hotel</tspan><tspan x="47.54" y="60" class="st10 st3 st12">Sunflower Ballroom | Manor Conference Center</tspan><tspan x="106.34" y="120" class="st10 st3 st12">SW Topeka Blvd, Topeka, KS 66612</tspan></text>
	<rect x="400.6" y="431.67" class="st1" width="1130.76" height="157.33"/>
	<text transform="matrix(1 0 0 1 611.7896 507.7725)" class="st7 st3 st13">March 25, 2020</text>
	<rect x="395.6" y="424.67" class="st1" width="1130.76" height="157.33"/>
	<text transform="matrix(1 0 0 1 606.7896 500.7725)" class="st5 st3 st13">March 25, 2020</text>
	<rect x="392.6" y="418.67" class="st1" width="1130.76" height="157.33"/>
	<text transform="matrix(1 0 0 1 603.7896 494.7725)" class="st2 st3 st13">March 25, 2020</text>
	<rect x="411.6" y="424.67" class="st1" width="1130.76" height="157.33"/>
	<text transform="matrix(1 0 0 1 622.7896 500.7725)" class="st10 st3 st13">March 25, 2020</text>
</g>
<g id="Layer_3">
	<rect x="698" y="1257" class="st14" width="44.39" height="36.11"/>
	<rect x="716.55" y="1269.92" class="st15" width="44.39" height="36.11"/>
	<rect x="706.28" y="1274.89" class="st16" width="44.39" height="36.11"/>
	<rect x="-224" y="504" class="st17" width="44.39" height="36.11"/>
	<rect x="-210.45" y="497.92" class="st18" width="44.39" height="36.11"/>
	<rect x="-214.72" y="479.89" class="st19" width="44.39" height="36.11"/>
	<rect x="1554" y="862.05" class="st20" width="206.29" height="167.8"/>
	<rect x="1640.21" y="802.01" class="st21" width="206.29" height="167.8"/>
	<rect x="1592.49" y="778.92" class="st22" width="206.29" height="167.8"/>
	
		<rect x="1747.22" y="606.75" transform="matrix(-1 -4.488200e-11 4.488200e-11 -1 3638.8474 1330.9579)" class="st23" width="144.4" height="117.46"/>
	
		<rect x="1686.88" y="564.72" transform="matrix(-1 -4.488200e-11 4.488200e-11 -1 3518.1526 1246.9026)" class="st24" width="144.4" height="117.46"/>
	
		<rect x="1720.28" y="548.56" transform="matrix(-1 -4.489443e-11 4.489443e-11 -1 3584.9658 1214.5737)" class="st25" width="144.4" height="117.46"/>
	
		<rect x="1819.24" y="399.47" transform="matrix(-1 4.488175e-11 -4.488175e-11 -1 3710.6736 857.6697)" class="st26" width="72.2" height="58.73"/>
	
		<rect x="1789.06" y="420.48" transform="matrix(-1 4.488175e-11 -4.488175e-11 -1 3650.3264 899.6974)" class="st27" width="72.2" height="58.73"/>
	
		<rect x="1805.77" y="428.57" transform="matrix(-1 4.489419e-11 -4.489419e-11 -1 3683.7329 915.8618)" class="st28" width="72.2" height="58.73"/>
	
		<rect x="198.88" y="744.59" transform="matrix(-8.979502e-11 1 -1 -8.979502e-11 1130.5155 526.4684)" class="st29" width="206.29" height="167.8"/>
	
		<rect x="258.92" y="830.8" transform="matrix(-8.978614e-11 1 -1 -8.978614e-11 1276.7655 552.6395)" class="st30" width="206.29" height="167.8"/>
	
		<rect x="282.01" y="783.08" transform="matrix(-8.978614e-11 1 -1 -8.978614e-11 1252.1339 481.8237)" class="st31" width="206.29" height="167.8"/>
	
		<rect x="538.29" y="894.04" transform="matrix(1.346772e-10 -1 1 1.346772e-10 -342.2776 1563.2642)" class="st26" width="144.4" height="117.46"/>
	
		<rect x="580.32" y="833.69" transform="matrix(1.346772e-10 -1 1 1.346772e-10 -239.9026 1544.9445)" class="st27" width="144.4" height="117.46"/>
	
		<rect x="596.48" y="867.1" transform="matrix(1.346834e-10 -1 1 1.346834e-10 -257.1447 1594.5155)" class="st28" width="144.4" height="117.46"/>
	
		<rect x="863.04" y="975.32" transform="matrix(4.493212e-11 -1 1 4.493212e-11 -105.5467 1903.8214)" class="st32" width="72.2" height="58.73"/>
	
		<rect x="842.02" y="945.14" transform="matrix(4.489482e-11 -1 1 4.489482e-11 -96.3868 1852.6339)" class="st33" width="72.2" height="58.73"/>
	
		<rect x="833.94" y="961.85" transform="matrix(4.490725e-11 -1 1 4.490725e-11 -121.1724 1861.2549)" class="st34" width="72.2" height="58.73"/>
	
		<rect x="-10.12" y="365.59" transform="matrix(-8.979502e-11 1 -1 -8.979502e-11 542.5154 356.4684)" class="st35" width="206.29" height="167.8"/>
	
		<rect x="49.92" y="451.8" transform="matrix(-8.978614e-11 1 -1 -8.978614e-11 688.7654 382.6395)" class="st36" width="206.29" height="167.8"/>
	
		<rect x="73.01" y="404.08" transform="matrix(-8.978614e-11 1 -1 -8.978614e-11 664.1339 311.8237)" class="st37" width="206.29" height="167.8"/>
	
		<rect x="301.29" y="512.04" transform="matrix(1.346772e-10 -1 1 1.346772e-10 -197.2776 944.2642)" class="st38" width="144.4" height="117.46"/>
	
		<rect x="343.32" y="451.69" transform="matrix(1.346772e-10 -1 1 1.346772e-10 -94.9026 925.9444)" class="st39" width="144.4" height="117.46"/>
	
		<rect x="359.48" y="485.1" transform="matrix(1.346834e-10 -1 1 1.346834e-10 -112.1447 975.5154)" class="st40" width="144.4" height="117.46"/>
	
		<rect x="574.04" y="577.32" transform="matrix(4.494544e-11 -1 1 4.494544e-11 3.4533 1216.8214)" class="st41" width="72.2" height="58.73"/>
	
		<rect x="553.02" y="547.14" transform="matrix(4.489482e-11 -1 1 4.489482e-11 12.6132 1165.6339)" class="st42" width="72.2" height="58.73"/>
	
		<rect x="544.94" y="563.85" transform="matrix(4.490725e-11 -1 1 4.490725e-11 -12.1724 1174.2549)" class="st43" width="72.2" height="58.73"/>
	
		<rect x="1324.48" y="822.04" transform="matrix(-8.976369e-11 -1 1 -8.976369e-11 515.9145 2277.4563)" class="st38" width="144.4" height="117.46"/>
	
		<rect x="1282.46" y="761.69" transform="matrix(-8.978856e-11 -1 1 -8.978856e-11 534.2342 2175.0813)" class="st39" width="144.4" height="117.46"/>
	
		<rect x="1266.29" y="795.1" transform="matrix(-8.978856e-11 -1 1 -8.978856e-11 484.6631 2192.3232)" class="st40" width="144.4" height="117.46"/>
	<rect x="1411.06" y="496.47" class="st44" width="72.2" height="58.73"/>
	<rect x="1441.24" y="517.48" class="st45" width="72.2" height="58.73"/>
	<rect x="1424.53" y="525.57" class="st46" width="72.2" height="58.73"/>
	<rect x="1176" y="965" class="st38" width="44.39" height="36.11"/>
	<rect x="1194.55" y="977.92" class="st39" width="44.39" height="36.11"/>
	<rect x="1184.28" y="982.89" class="st40" width="44.39" height="36.11"/>
	
		<rect x="398.55" y="48" transform="matrix(-1 -4.486779e-11 4.486779e-11 -1 841.4969 132.1104)" class="st47" width="44.39" height="36.11"/>
	
		<rect x="380" y="60.92" transform="matrix(-1 -4.490864e-11 4.490864e-11 -1 804.3926 157.9509)" class="st48" width="44.39" height="36.11"/>
	
		<rect x="390.27" y="65.89" transform="matrix(-1 -4.490864e-11 4.490864e-11 -1 824.9325 167.8896)" class="st49" width="44.39" height="36.11"/>
	<rect x="124" y="1257" class="st14" width="44.39" height="36.11"/>
	<rect x="142.55" y="1269.92" class="st15" width="44.39" height="36.11"/>
	<rect x="132.28" y="1274.89" class="st16" width="44.39" height="36.11"/>
	<rect x="1052.21" y="58.61" class="st26" width="96.37" height="78.39"/>
	<rect x="1092.49" y="30.56" class="st27" width="96.37" height="78.39"/>
	<rect x="1070.19" y="19.77" class="st28" width="96.37" height="78.39"/>
	<rect x="-351.79" y="178.77" class="st44" width="96.37" height="78.39"/>
	<rect x="-311.51" y="206.82" class="st45" width="96.37" height="78.39"/>
	<rect x="-333.81" y="217.61" class="st46" width="96.37" height="78.39"/>
	<rect x="801" y="12" class="st38" width="44.39" height="36.11"/>
	<rect x="819.55" y="24.92" class="st39" width="44.39" height="36.11"/>
	<rect x="809.28" y="29.89" class="st40" width="44.39" height="36.11"/>
	
		<rect x="1657.01" y="145.8" transform="matrix(1.795809e-10 -1 1 1.795809e-10 1530.4526 1989.8575)" class="st32" width="206.29" height="167.8"/>
	
		<rect x="1596.97" y="59.59" transform="matrix(1.795809e-10 -1 1 1.795809e-10 1556.6237 1843.6075)" class="st33" width="206.29" height="167.8"/>
	
		<rect x="1573.88" y="107.31" transform="matrix(1.795809e-10 -1 1 1.795809e-10 1485.8079 1868.2391)" class="st34" width="206.29" height="167.8"/>
	<rect x="168.21" y="128.61" class="st26" width="96.37" height="78.39"/>
	<rect x="208.49" y="100.56" class="st27" width="96.37" height="78.39"/>
	<rect x="186.19" y="89.77" class="st28" width="96.37" height="78.39"/>
	
		<rect x="-246.45" y="991" transform="matrix(-1 -4.486779e-11 4.486779e-11 -1 -448.5031 2018.1105)" class="st38" width="44.39" height="36.11"/>
	
		<rect x="-265" y="1003.92" transform="matrix(-1 -4.490864e-11 4.490864e-11 -1 -485.6074 2043.9509)" class="st39" width="44.39" height="36.11"/>
	
		<rect x="-254.73" y="1008.89" transform="matrix(-1 -4.490864e-11 4.490864e-11 -1 -465.0675 2053.8896)" class="st40" width="44.39" height="36.11"/>
</g>
</svg>
